#!OML:ASF F:\VICON\USERDATA\INSTALL\rory3\rory3.ASF
:FULLY-SPECIFIED
:DEGREES
826
root -0.749675 28.4867 -4.11756 2.50605 6.05057 2.95898
lowerback 6.04904 -0.313862 -5.33235
upperback 1.71557 -0.713106 1.26322
thorax -1.53624 -0.350003 4.35765
lowerneck -13.4415 1.40763 -9.10097
upperneck 42.4155 5.51495 0.00769639
head 17.8484 0.807492 2.65592
rclavicle -3.97569e-015 3.97569e-015
rhumerus -33.6771 -10.4611 -76.333
rradius 32.425
rwrist 20.2595
rhand -18.6826 2.16707
rfingers 7.12502
rthumb 7.6115 -27.676
lclavicle -3.97569e-015 3.97569e-015
lhumerus -33.5217 9.45166 78.8058
lradius 32.0137
lwrist -4.48414
lhand -8.09887 28.6461
lfingers 7.12502
lthumb 17.8137 57.8502
rfemur -34.1269 -0.493746 15.079
rtibia 50.0332
rfoot 1.93368 -9.23912
rtoes 10.1964
lfemur -10.0099 -2.04667 -26.9676
ltibia 34.4427
lfoot -22.2528 -2.93373
ltoes -2.22137
827
root -0.749979 28.4533 -4.06286 2.48502 6.16088 2.99419
lowerback 5.97995 -0.343131 -5.38357
upperback 1.70532 -0.751946 1.2435
thorax -1.50336 -0.370083 4.36786
lowerneck -13.3388 1.42437 -9.00145
upperneck 42.3948 5.53854 -0.0980311
head 17.8168 0.821582 2.59022
rclavicle -6.75868e-015 0
rhumerus -33.7646 -10.3526 -76.3473
rradius 32.51
rwrist 20.2277
rhand -18.3613 1.91478
rfingers 7.12502
rthumb 7.92163 -27.9168
lclavicle -6.75868e-015 0
lhumerus -33.6417 9.32897 78.7372
lradius 32.1316
lwrist -4.44513
lhand -8.08077 28.5571
lfingers 7.12502
lthumb 17.8311 57.7596
rfemur -33.8447 -0.180925 14.9235
rtibia 48.3883
rfoot 2.50438 -9.65127
rtoes 10.2315
lfemur -10.2202 -2.13493 -27.0114
ltibia 35.2648
lfoot -22.8134 -2.92959
ltoes -3.07756
828
root -0.750832 28.4142 -4.00875 2.44275 6.2819 3.11353
lowerback 5.98211 -0.35855 -5.52838
upperback 1.68427 -0.782478 1.20192
thorax -1.52118 -0.384093 4.40885
lowerneck -13.2806 1.38798 -9.00375
upperneck 42.4203 5.47523 -0.0916742
head 17.8203 0.796211 2.58176
rclavicle -1.81888e-014 7.55382e-015
rhumerus -33.8282 -10.2675 -76.3608
rradius 32.4874
rwrist 20.1895
rhand -18.459 1.92368
rfingers 7.12502
rthumb 7.82729 -27.9114
lclavicle -1.81888e-014 7.55382e-015
lhumerus -33.7665 9.07318 78.6939
lradius 32.2213
lwrist -4.34353
lhand -8.22917 28.5292
lfingers 7.12502
lthumb 17.6883 57.7447
rfemur -33.5033 0.130562 14.6789
rtibia 46.7708
rfoot 2.98534 -10.1212
rtoes 10.472
lfemur -10.4725 -2.21189 -27.1457
ltibia 36.1491
lfoot -23.3489 -2.89938
ltoes -4.48719
829
root -0.752608 28.3717 -3.95195 2.4156 6.44078 3.12739
lowerback 5.89216 -0.379993 -5.54727
upperback 1.71405 -0.806494 1.19071
thorax -1.43721 -0.399326 4.40778
lowerneck -13.3484 1.35105 -9.13963
upperneck 42.4788 5.4247 0.0369404
head 17.8652 0.767746 2.66013
rclavicle 7.15625e-015 -6.75868e-015
rhumerus -33.9689 -10.1499 -76.3765
rradius 32.642
rwrist 20.0667
rhand -18.5875 2.06291
rfingers 7.12502
rthumb 7.70335 -27.7768
lclavicle 7.15625e-015 -6.75868e-015
lhumerus -33.7422 8.84451 78.6919
lradius 32.2489
lwrist -4.30765
lhand -8.41346 28.3359
lfingers 7.12502
lthumb 17.511 57.5672
rfemur -33.1622 0.370778 14.578
rtibia 45.1877
rfoot 3.74263 -10.4643
rtoes 9.48595
lfemur -10.7057 -2.28348 -27.1434
ltibia 37.0622
lfoot -23.901 -2.88152
ltoes -5.1999
830
root -0.755126 28.328 -3.89622 2.38638 6.65782 3.11328
lowerback 5.83922 -0.448064 -5.54112
upperback 1.71028 -0.893855 1.18481
thorax -1.40155 -0.44396 4.40312
lowerneck -13.2629 1.39449 -9.104
upperneck 42.4879 5.49056 -0.00740714
head 17.8473 0.79545 2.64267
rclavicle -1.38155e-014 -4.77083e-015
rhumerus -34.1865 -9.94686 -76.4422
rradius 32.9308
rwrist 19.8566
rhand -18.5439 1.78863
rfingers 7.12502
rthumb 7.74543 -28.0495
lclavicle -1.38155e-014 -4.77083e-015
lhumerus -33.7793 8.78374 78.5994
lradius 32.2551
lwrist -4.32423
lhand -8.41614 28.3044
lfingers 7.12502
lthumb 17.5084 57.5359
rfemur -32.8117 0.560421 14.5213
rtibia 43.6331
rfoot 4.48405 -10.8693
rtoes 8.46661
lfemur -10.879 -2.40651 -27.0954
ltibia 37.9841
lfoot -24.4237 -2.883
ltoes -5.45071
831
root -0.759286 28.2814 -3.83966 2.30214 6.82611 3.05176
lowerback 5.81625 -0.511372 -5.53302
upperback 1.73043 -0.975679 1.19347
thorax -1.35828 -0.486643 4.41228
lowerneck -13.16 1.42954 -9.00755
upperneck 42.468 5.52896 -0.0812976
head 17.8124 0.819179 2.59464
rclavicle -6.95746e-016 -4.37326e-015
rhumerus -34.2635 -9.84538 -76.5053
rradius 33.0586
rwrist 19.7331
rhand -18.529 1.73692
rfingers 7.12502
rthumb 7.75979 -28.1007
lclavicle -6.95746e-016 -4.37326e-015
lhumerus -33.8207 8.801 78.4585
lradius 32.289
lwrist -4.40266
lhand -8.2383 28.4345
lfingers 7.12502
lthumb 17.6795 57.6507
rfemur -32.4009 0.819588 14.5174
rtibia 42.1243
rfoot 4.98448 -11.5039
rtoes 9.00916
lfemur -10.992 -2.53791 -26.9964
ltibia 38.8895
lfoot -24.9954 -2.83093
ltoes -6.08205
832
root -0.763324 28.2338 -3.78149 2.19902 7.02581 3.02031
lowerback 5.87207 -0.527299 -5.50883
upperback 1.70362 -0.999476 1.17855
thorax -1.41516 -0.496121 4.3859
lowerneck -13.0552 1.36746 -9.05886
upperneck 42.5254 5.35938 0.107901
head 17.8146 0.767989 2.66083
rclavicle 4.12478e-015 -9.93923e-015
rhumerus -34.4661 -9.81886 -76.491
rradius 33.1365
rwrist 19.5645
rhand -18.5746 1.80797
rfingers 7.12502
rthumb 7.71572 -28.0313
lclavicle 4.12478e-015 -9.93923e-015
lhumerus -33.8617 8.6363 78.3718
lradius 32.2697
lwrist -4.47352
lhand -8.17002 28.441
lfingers 7.12502
lthumb 17.7452 57.6513
rfemur -31.948 1.03704 14.4807
rtibia 40.6836
rfoot 5.41774 -12.1928
rtoes 10.0318
lfemur -11.0826 -2.72077 -26.9272
ltibia 39.7691
lfoot -25.5268 -2.89273
ltoes -6.38188
833
root -0.766923 28.1774 -3.72424 2.06734 7.24064 2.99067
lowerback 5.91652 -0.565461 -5.51008
upperback 1.74968 -1.05128 1.20301
thorax -1.38571 -0.523969 4.41581
lowerneck -13.1065 1.34932 -9.06705
upperneck 42.5885 5.33365 0.14204
head 17.8653 0.756899 2.67722
rclavicle -2.28602e-015 4.77083e-015
rhumerus -34.5213 -9.76286 -76.4712
rradius 33.2425
rwrist 19.4792
rhand -18.6539 1.77487
rfingers 7.12502
rthumb 7.6392 -28.0672
lclavicle -2.28602e-015 4.77083e-015
lhumerus -33.7471 8.71952 78.2941
lradius 32.1823
lwrist -4.53775
lhand -8.22261 28.4876
lfingers 7.12502
lthumb 17.6946 57.7025
rfemur -31.5065 1.17667 14.4759
rtibia 39.3036
rfoot 5.98012 -12.9259
rtoes 10.384
lfemur -11.1109 -2.87153 -26.8533
ltibia 40.6798
lfoot -26.1012 -2.97477
ltoes -6.10229
834
root -0.771682 28.1159 -3.66837 1.95723 7.45413 2.99755
lowerback 5.92889 -0.602904 -5.55669
upperback 1.82771 -1.10262 1.20507
thorax -1.30473 -0.553895 4.447
lowerneck -13.2816 1.33697 -8.99926
upperneck 42.667 5.36876 0.0441815
head 17.9659 0.760602 2.63348
rclavicle -9.0447e-015 1.11319e-014
rhumerus -34.489 -9.90319 -76.4356
rradius 33.3072
rwrist 19.5998
rhand -18.6261 1.76526
rfingers 7.12502
rthumb 7.66601 -28.0758
lclavicle -9.0447e-015 1.11319e-014
lhumerus -33.5633 8.76485 78.2122
lradius 32.1144
lwrist -4.51433
lhand -8.16643 28.639
lfingers 7.12502
lthumb 17.7487 57.8489
rfemur -31.0838 1.29292 14.4456
rtibia 37.9804
rfoot 6.50602 -13.6141
rtoes 10.6661
lfemur -11.1113 -3.0092 -26.7968
ltibia 41.6231
lfoot -26.7262 -2.98243
ltoes -5.2739
835
root -0.777581 28.0577 -3.6113 1.94868 7.69204 2.9327
lowerback 5.85102 -0.653843 -5.5327
upperback 1.80014 -1.16463 1.23841
thorax -1.28233 -0.585002 4.47091
lowerneck -13.187 1.32257 -9.10951
upperneck 42.6933 5.33058 0.145616
head 17.9498 0.742736 2.69171
rclavicle -1.28713e-014 1.03368e-014
rhumerus -34.6453 -9.75341 -76.4104
rradius 33.4179
rwrist 19.4682
rhand -18.6135 1.75956
rfingers 7.12502
rthumb 7.67821 -28.081
lclavicle -1.28713e-014 1.03368e-014
lhumerus -33.5702 8.74513 78.1604
lradius 32.0771
lwrist -4.3733
lhand -8.32361 28.4451
lfingers 7.12502
lthumb 17.5974 57.6688
rfemur -30.7338 1.37028 14.5071
rtibia 36.7
rfoot 7.00258 -14.2432
rtoes 11.4472
lfemur -11.2921 -3.16326 -26.6423
ltibia 42.6038
lfoot -27.3182 -3.12363
ltoes -4.66624
836
root -0.783728 28.002 -3.55207 1.95748 7.9077 2.89861
lowerback 5.77541 -0.688732 -5.54562
upperback 1.74299 -1.20853 1.2558
thorax -1.29345 -0.605318 4.49827
lowerneck -12.9891 1.31859 -9.0916
upperneck 42.6918 5.28851 0.156812
head 17.8982 0.735103 2.68115
rclavicle -1.78906e-015 1.43125e-014
rhumerus -34.8527 -9.40977 -76.4482
rradius 33.5941
rwrist 19.1598
rhand -18.5003 1.49282
rfingers 7.12502
rthumb 7.78747 -28.3438
lclavicle -1.78906e-015 1.43125e-014
lhumerus -33.6267 8.74657 78.0837
lradius 32.0392
lwrist -4.44894
lhand -8.45426 28.5285
lfingers 7.12502
lthumb 17.4717 57.7634
rfemur -30.3887 1.42856 14.5591
rtibia 35.4486
rfoot 7.55001 -14.8554
rtoes 11.5885
lfemur -11.542 -3.31104 -26.5367
ltibia 43.604
lfoot -27.849 -3.21067
ltoes -5.14502
837
root -0.789077 27.9448 -3.4927 1.91245 8.07988 2.9447
lowerback 5.75343 -0.668691 -5.61187
upperback 1.78703 -1.18288 1.28124
thorax -1.23651 -0.595372 4.55967
lowerneck -13.0402 1.2577 -9.14893
upperneck 42.6907 5.24717 0.105034
head 17.9179 0.702506 2.66204
rclavicle -3.47873e-016 -1.70955e-014
rhumerus -34.9873 -9.10603 -76.4219
rradius 33.8627
rwrist 18.7614
rhand -18.3692 1.2499
rfingers 7.12502
rthumb 7.91402 -28.582
lclavicle -3.47873e-016 -1.70955e-014
lhumerus -33.4681 8.73808 78.1256
lradius 31.9869
lwrist -4.61492
lhand -8.41592 28.7101
lfingers 7.12502
lthumb 17.5086 57.9417
rfemur -29.9568 1.48343 14.5395
rtibia 34.2153
rfoot 8.15585 -15.4157
rtoes 11.2477
lfemur -11.7222 -3.39681 -26.5294
ltibia 44.6188
lfoot -28.4354 -3.21544
ltoes -5.92139
838
root -0.794532 27.8852 -3.43345 1.9131 8.1937 2.98644
lowerback 5.63169 -0.643105 -5.65923
upperback 1.88261 -1.14185 1.30459
thorax -1.07296 -0.582411 4.60461
lowerneck -13.2453 1.16104 -9.35363
upperneck 42.7123 5.16533 0.183489
head 17.9841 0.643184 2.72709
rclavicle 8.49804e-015 2.38542e-015
rhumerus -34.9352 -9.00922 -76.3645
rradius 34.0096
rwrist 18.5369
rhand -18.3679 1.35411
rfingers 7.12502
rthumb 7.91528 -28.4777
lclavicle 8.49804e-015 2.38542e-015
lhumerus -33.1591 8.84783 78.1675
lradius 31.8588
lwrist -4.73931
lhand -8.53355 28.5978
lfingers 7.12502
lthumb 17.3954 57.8394
rfemur -29.5638 1.48871 14.5532
rtibia 33.0201
rfoot 8.10689 -16.3077
rtoes 12.7953
lfemur -11.9544 -3.38115 -26.5107
ltibia 45.6396
lfoot -29.0667 -3.26867
ltoes -6.94375
839
root -0.80078 27.8225 -3.37225 1.90571 8.32328 3.05856
lowerback 5.54858 -0.686375 -5.81073
upperback 1.88468 -1.20289 1.29439
thorax -1.01366 -0.615156 4.68161
lowerneck -13.2872 1.15767 -9.27385
upperneck 42.7806 5.17714 0.111571
head 18.0425 0.645674 2.68479
rclavicle -2.33075e-014 -1.19271e-015
rhumerus -34.9162 -8.79129 -76.4462
rradius 34.0167
rwrist 18.3753
rhand -18.4415 1.40078
rfingers 7.12502
rthumb 7.8442 -28.4337
lclavicle -2.33075e-014 -1.19271e-015
lhumerus -33.142 9.13339 77.9798
lradius 31.8233
lwrist -4.7782
lhand -8.66465 28.5448
lfingers 7.12502
lthumb 17.2692 57.7975
rfemur -29.1448 1.43836 14.5622
rtibia 31.8606
rfoot 7.6209 -17.3919
rtoes 15.7736
lfemur -12.1771 -3.4605 -26.5315
ltibia 46.6822
lfoot -29.6296 -3.3612
ltoes -7.49838
840
root -0.807032 27.7636 -3.31149 1.92762 8.45448 3.17087
lowerback 5.51874 -0.677236 -5.89048
upperback 1.81484 -1.19611 1.21264
thorax -1.0702 -0.608125 4.64134
lowerneck -13.2408 1.11078 -9.26582
upperneck 42.9265 5.06865 0.209595
head 18.1194 0.609931 2.71369
rclavicle -2.63887e-014 4.77083e-015
rhumerus -35.1303 -8.85014 -76.4487
rradius 34.058
rwrist 18.3519
rhand -18.4689 1.38524
rfingers 7.12502
rthumb 7.81775 -28.4502
lclavicle -2.63887e-014 4.77083e-015
lhumerus -33.2043 9.21382 77.7638
lradius 31.8182
lwrist -4.83241
lhand -8.66911 28.3617
lfingers 7.12502
lthumb 17.2649 57.6148
rfemur -28.7346 1.43802 14.5293
rtibia 30.7131
rfoot 7.7471 -18.1461
rtoes 17.1868
lfemur -12.4483 -3.57985 -26.593
ltibia 47.7595
lfoot -30.1102 -3.37259
ltoes -7.43781
